# xmcd
#
# Track frame offsets:
#	151
#	15411
#	26292
#	45887
#	62923
#	76376
#	96503
#	108446
#	129085
#	151531
#	163394
#	172754
#	198855
#	209457
#	221250
#	243765
#	259949
#	282850
#	295719
#	311543
#
# Disc length: 4437 seconds
#
# Revision: 1
# Processed by: cddbd v1.4PL0 Copyright (c) Steve Scherf et al.
# Submitted via: audiograbber 1.81.03
#
DISCID=fd115314
DTITLE=Maryla Rodowicz - Best CD1
DYEAR=1900
DGENRE=Ballad
TTITLE0=Mowily Mu
TTITLE1=Dzieciol i dziewczyna
TTITLE2=Do lezki lezka
TTITLE3=Jada wozy kolorowe
TTITLE4=Jak Cie mily zatrzymac
TTITLE5=Malgoska
TTITLE6=Wio koniku
TTITLE7=Dzis prawdziwych Cyganow juz nie ma
TTITLE8=Kiedy sie dziwic przestane
TTITLE9=Sing Sing
TTITLE10=Dama byc
TTITLE11=Kolorowe jarmarki
TTITLE12=Futbol
TTITLE13=Krazy, krazy, zloty pieniadz
TTITLE14=Bossanowa do poduszki
TTITLE15=Dentysta sadysta
TTITLE16=Szparka sekretarka 
TTITLE17=Nie wiem, czy wytrzymasz ze mna maly
TTITLE18=Fruwa Twoja marynara
TTITLE19=W moim miescie Lodzi
EXTD=
EXTT0=
EXTT1=
EXTT2=
EXTT3=
EXTT4=
EXTT5=
EXTT6=
EXTT7=
EXTT8=
EXTT9=
EXTT10=
EXTT11=
EXTT12=
EXTT13=
EXTT14=
EXTT15=
EXTT16=
EXTT17=
EXTT18=
EXTT19=
PLAYORDER=
